<svg xmlns="http://www.w3.org/2000/svg" width="720" height="720" viewBox="0 0 720 720">
<g>
<path d="M 300.57 575.69 L 297.89 578.00 L 232.17 578.00 C173.02,578.00 166.21,577.84 164.12,576.37 C163.54,575.96 163.03,575.62 162.57,575.21 C159.00,572.01 159.00,564.82 159.00,492.77 L 159.00 489.12 L 159.00 410.18 L 150.56 407.49 C134.32,402.32 121.46,392.46 112.97,378.66 C107.78,370.22 107.01,366.86 109.48,363.34 C112.14,359.54 115.47,359.59 123.83,363.56 C132.61,367.73 144.23,370.24 152.69,369.80 L 158.50 369.50 L 159.01 285.50 C159.58,192.82 159.27,197.34 166.05,183.89 C169.77,176.53 180.42,165.62 187.68,161.73 C198.49,155.93 205.33,155.00 236.98,155.00 C271.55,155.00 273.81,155.43 281.59,163.41 C289.17,171.18 290.00,174.50 290.00,197.09 C290.00,211.19 290.31,215.94 291.25,216.27 C291.94,216.50 297.09,213.57 302.70,209.75 C324.91,194.62 343.45,170.17 351.48,145.42 C354.31,136.69 355.80,135.00 360.65,135.00 C364.12,135.00 368.00,138.13 368.00,140.92 C368.00,144.04 375.50,160.76 380.67,169.15 C387.72,180.59 399.09,195.22 403.20,198.13 C405.02,199.41 407.85,201.66 409.50,203.12 C417.79,210.51 428.83,217.58 430.08,216.30 C430.51,215.86 431.00,206.73 431.18,196.00 C431.50,176.62 431.52,176.46 434.50,170.50 C438.02,163.46 443.62,158.78 451.23,156.53 C457.57,154.64 506.45,154.34 516.92,156.12 C536.16,159.39 552.36,173.57 559.26,193.18 C561.48,199.47 561.49,199.87 561.99,284.50 L 562.50 369.50 L 567.88 369.81 C576.83,370.32 586.81,368.23 596.31,363.86 C604.31,360.17 605.38,359.92 608.09,361.04 C613.45,363.26 614.20,366.85 610.81,373.93 C605.95,384.09 595.87,394.61 584.36,401.54 C579.53,404.45 576.52,405.60 565.00,408.94 L 562.50 409.67 L 562.00 490.92 L 561.50 572.16 L 558.23 575.08 L 554.97 578.00 L 423.21 578.00 L 420.11 575.10 L 417.00 572.20 L 417.00 497.93 L 403.48 489.21 C396.05,484.42 383.56,476.34 375.73,471.25 C367.91,466.16 361.05,462.01 360.50,462.03 C359.95,462.04 355.00,464.95 349.50,468.48 C344.00,472.02 336.12,477.05 332.00,479.66 C327.88,482.28 320.11,487.28 314.75,490.78 L 305.00 497.15 L 304.94 530.32 C304.87,568.03 304.46,572.35 300.57,575.69 ZM 174.00 285.90 C174.00,349.33 174.26,366.00 175.25,365.98 C177.50,365.94 184.59,362.31 192.10,357.37 C196.14,354.70 205.31,346.88 212.48,339.98 C227.67,325.36 235.20,318.88 243.50,313.30 C254.53,305.90 271.89,298.02 281.95,295.86 C285.00,295.21 288.06,294.24 288.75,293.71 C289.66,293.02 290.00,288.30 290.00,276.37 L 290.00 259.98 L 284.62 256.53 C277.80,252.17 260.69,235.07 258.95,230.89 C257.85,228.22 257.87,227.31 259.11,225.11 C260.39,222.82 261.30,222.46 266.50,222.19 C269.76,222.03 273.01,221.41 273.72,220.82 C274.68,220.02 275.00,214.80 275.00,199.63 C274.99,181.20 274.82,179.22 272.97,176.19 C269.42,170.36 267.24,170.00 235.78,170.02 C205.03,170.03 203.38,170.26 193.85,175.76 C184.39,181.24 178.99,188.46 175.63,200.15 C174.18,205.16 174.00,214.92 174.00,285.90 ZM 539.19 363.01 C542.57,364.61 545.70,365.68 546.16,365.40 C547.33,364.68 547.21,209.88 546.04,202.70 C544.87,195.57 542.06,189.78 536.75,183.57 C532.07,178.09 527.81,175.26 519.66,172.19 C514.13,170.12 512.25,170.00 484.32,170.00 C456.04,170.00 454.69,170.09 451.89,172.08 C446.46,175.94 446.13,177.65 446.32,200.56 L 446.50 221.50 L 453.33 222.00 C458.56,222.38 460.50,222.96 461.58,224.44 C463.36,226.88 463.37,228.40 461.59,231.80 C459.66,235.49 440.49,254.09 435.25,257.37 L 431.00 260.03 L 431.00 275.99 C431.00,276.37 431.00,276.75 431.00,277.11 C431.00,287.33 431.00,291.25 432.96,293.26 C434.26,294.58 436.42,295.07 440.00,295.97 C446.06,297.49 450.89,299.41 460.99,304.28 C477.75,312.37 489.11,320.89 508.50,339.92 C521.06,352.24 528.91,358.15 539.19,363.01 ZM 174.49 483.84 C174.87,484.82 176.29,485.04 179.75,484.63 C182.36,484.32 187.43,483.80 191.00,483.47 C199.52,482.68 217.69,478.64 226.50,475.58 C247.73,468.21 273.88,453.95 286.50,442.87 L 290.00 439.79 L 290.00 347.00 L 287.87 347.00 C285.62,347.00 273.56,353.28 266.00,358.37 C263.52,360.04 256.53,366.16 250.46,371.96 C244.39,377.75 236.04,385.08 231.91,388.24 C216.52,399.99 197.58,408.22 182.47,409.71 L 174.50 410.50 L 174.24 446.50 C174.09,466.29 174.21,483.10 174.49,483.84 ZM 529.00 483.48 C535.33,484.20 541.85,484.73 543.50,484.65 L 546.50 484.50 L 546.50 410.50 L 542.50 410.22 C536.53,409.81 522.12,406.33 514.51,403.47 C502.15,398.82 488.00,388.52 467.83,369.51 C459.10,361.29 451.53,355.88 441.39,350.63 C440.39,350.11 439.47,349.60 438.65,349.14 C436.25,347.79 434.59,346.87 433.45,347.30 C430.92,348.26 430.93,355.94 430.98,380.67 C430.99,384.49 431.00,388.71 431.00,393.38 L 431.00 439.76 L 435.25 443.23 C447.34,453.11 474.19,468.22 490.50,474.31 C501.74,478.51 516.63,482.06 529.00,483.48 ZM 304.00 372.50 C304.00,431.62 304.21,480.00 304.47,480.00 C304.73,480.00 308.61,477.60 313.10,474.67 L 321.25 469.35 L 321.18 377.42 C321.12,298.14 321.31,285.19 322.58,283.25 L 324.05 281.00 L 360.19 281.00 C392.43,281.00 396.54,281.18 398.17,282.65 C399.92,284.24 400.00,288.46 400.00,376.57 L 400.00 468.83 L 403.75 471.70 C409.95,476.45 415.74,479.92 416.39,479.28 C416.73,478.94 417.00,430.59 417.00,371.83 L 417.00 265.00 L 304.00 265.00 ZM 158.08 394.41 C166.06,396.56 177.78,396.34 188.38,393.86 C206.54,389.61 217.70,382.62 240.03,361.52 C252.46,349.77 266.27,340.21 279.00,334.55 C283.67,332.48 288.06,330.32 288.75,329.77 C290.27,328.53 290.51,310.43 289.01,309.51 C287.79,308.75 276.02,312.92 266.07,317.62 C254.27,323.20 241.75,332.42 227.62,345.96 C220.40,352.87 211.96,360.65 208.86,363.25 C199.30,371.25 187.63,377.49 173.50,382.18 C170.84,383.06 164.06,383.50 153.28,383.50 C138.10,383.50 137.17,383.61 138.78,385.17 C141.39,387.70 151.97,392.77 158.08,394.41 ZM 536.35 394.96 C551.22,397.90 571.67,393.78 582.50,385.66 C585.63,383.31 583.89,382.88 575.90,384.02 C567.28,385.26 554.27,383.98 544.09,380.90 C528.93,376.32 514.76,366.76 495.50,348.13 C477.13,330.36 465.39,321.97 449.50,315.22 C437.55,310.15 432.89,308.71 431.84,309.76 C431.33,310.27 431.05,314.91 431.21,320.09 L 431.50 329.50 L 435.00 331.24 C436.92,332.20 441.88,334.54 446.00,336.43 C458.75,342.30 465.55,347.26 483.79,364.00 C497.15,376.27 502.90,380.73 511.70,385.65 C518.52,389.46 529.47,393.60 536.35,394.96 ZM 311.54 223.06 C312.18,224.09 408.25,224.41 409.28,223.39 C409.62,223.05 407.55,220.96 404.70,218.74 C389.89,207.25 372.49,186.69 364.50,171.24 C363.00,168.35 361.39,165.74 360.92,165.45 C360.44,165.15 358.80,167.21 357.27,170.03 C346.89,189.17 329.95,209.06 315.65,218.90 C313.07,220.67 311.22,222.55 311.54,223.06 ZM 174.71 562.38 C175.10,562.77 178.14,562.95 181.46,562.79 L 187.50 562.50 L 187.78 550.85 C187.98,542.53 188.45,538.87 189.42,538.07 C190.17,537.45 194.43,536.50 198.89,535.97 C219.29,533.53 223.14,532.91 233.00,530.50 C242.59,528.14 261.62,522.16 266.50,519.96 C267.60,519.47 272.77,517.21 278.00,514.94 C283.23,512.68 288.06,510.36 288.75,509.79 C290.09,508.68 290.58,494.00 289.28,494.00 C288.89,494.00 283.15,496.67 276.53,499.93 C246.74,514.61 212.63,523.01 182.75,523.00 L 174.00 523.00 L 174.00 542.33 C174.00,552.97 174.32,561.99 174.71,562.38 ZM 533.62 561.46 C534.12,562.77 535.46,563.03 540.37,562.79 L 546.50 562.50 L 546.77 543.34 L 547.04 524.18 L 538.27 523.55 C496.58,520.53 475.29,515.09 443.72,499.37 C437.79,496.42 432.50,494.00 431.97,494.00 C430.49,494.00 430.75,508.56 432.25,509.72 C434.75,511.65 456.76,520.89 467.02,524.32 C482.71,529.57 497.70,532.92 514.85,535.03 C523.30,536.07 530.83,537.45 531.60,538.08 C532.63,538.94 533.00,541.94 533.00,549.54 C533.00,555.20 533.28,560.57 533.62,561.46 ZM 174.67 508.33 C176.50,510.16 202.99,507.65 221.21,503.91 C243.29,499.39 266.46,490.27 282.91,479.63 L 290.00 475.04 L 290.00 468.08 C290.00,464.25 289.59,460.87 289.10,460.56 C288.60,460.25 285.79,461.63 282.85,463.62 C267.14,474.25 247.91,483.96 231.50,489.54 C217.90,494.17 191.08,498.92 178.25,498.98 L 174.00 499.00 L 174.00 503.33 C174.00,505.72 174.30,507.97 174.67,508.33 ZM 524.00 507.86 C529.22,508.36 536.42,508.71 540.00,508.63 L 546.50 508.50 L 546.80 503.75 L 547.11 499.00 L 542.30 498.98 C533.91,498.95 513.85,496.14 503.50,493.56 C481.70,488.13 460.09,478.31 439.11,464.32 C435.59,461.98 432.33,460.30 431.86,460.59 C431.39,460.88 431.00,464.22 431.00,468.02 L 431.00 474.93 L 437.13 479.09 C444.02,483.76 460.51,491.74 472.36,496.12 C487.88,501.87 507.20,506.26 524.00,507.86 ZM 306.68 250.34 C307.05,250.71 331.46,250.90 360.93,250.76 L 414.50 250.50 L 414.80 244.91 L 415.09 239.33 L 375.88 238.66 C354.32,238.30 329.77,238.00 321.34,238.00 L 306.00 238.00 L 306.00 243.83 C306.00,247.04 306.30,249.97 306.68,250.34 ZM 377.85 455.16 C380.96,457.18 383.95,458.72 384.50,458.58 C385.12,458.43 385.50,451.69 385.50,440.92 L 385.50 423.50 L 368.00 422.92 L 368.00 435.31 C368.00,435.88 368.00,436.42 368.00,436.94 C367.99,443.19 367.99,446.14 369.26,448.35 C370.50,450.52 372.97,451.99 377.85,455.16 ZM 274.67 562.33 C275.83,563.50 287.54,563.06 288.80,561.80 C290.58,560.02 290.49,528.12 288.70,527.44 C287.99,527.17 284.39,528.31 280.70,529.98 L 274.00 533.02 L 274.00 547.34 C274.00,555.22 274.30,561.97 274.67,562.33 ZM 431.71 562.37 C432.09,562.76 435.58,562.95 439.46,562.79 L 446.50 562.50 L 446.78 547.72 L 447.05 532.94 L 440.43 529.97 C436.79,528.34 433.18,527.00 432.41,527.00 C431.25,527.00 431.00,530.10 431.00,544.33 C431.00,553.87 431.32,561.98 431.71,562.37 ZM 336.00 441.00 C336.00,452.46 336.35,458.00 337.07,458.00 C338.55,458.00 351.18,449.74 352.90,447.64 C354.00,446.30 354.15,443.77 353.64,435.85 C353.27,430.31 352.73,425.37 352.43,424.88 C352.13,424.40 348.31,424.00 343.94,424.00 L 336.00 424.00 ZM 368.00 294.92 L 368.00 324.00 L 375.88 324.00 C381.38,324.00 384.10,323.58 384.91,322.61 C385.68,321.68 385.97,316.99 385.78,308.36 L 385.50 295.50 ZM 368.00 338.00 L 368.00 366.08 L 385.50 365.50 L 385.78 351.75 L 386.06 338.00 ZM 336.44 407.70 C337.10,409.42 351.10,409.50 352.80,407.80 C353.60,407.00 354.00,402.53 354.00,394.27 C354.00,393.72 354.00,393.20 354.00,392.70 C354.01,386.05 354.01,383.03 352.51,381.65 C351.25,380.50 348.94,380.51 344.70,380.51 C344.32,380.51 343.92,380.51 343.50,380.51 L 336.50 380.50 L 336.22 393.45 C336.06,400.57 336.16,406.98 336.44,407.70 ZM 368.22 394.79 L 367.94 409.08 L 376.72 408.79 L 385.50 408.50 L 385.50 380.50 L 368.50 380.50 ZM 336.45 321.74 C336.84,322.75 339.02,323.01 345.23,322.79 L 353.50 322.50 L 353.67 308.71 L 353.85 294.92 L 345.17 295.21 L 336.50 295.50 L 336.22 307.94 C336.06,314.79 336.17,320.99 336.45,321.74 ZM 336.44 364.69 C337.12,366.49 351.89,366.54 352.47,364.75 C352.69,364.06 353.03,357.75 353.23,350.71 L 353.59 337.93 L 345.05 338.21 L 336.50 338.50 L 336.22 350.94 C336.06,357.79 336.16,363.98 336.44,364.69 ZM 197.69 446.45 C188.02,449.18 187.05,449.30 186.47,447.79 C186.18,447.02 186.06,441.25 186.22,434.97 L 186.50 423.57 L 194.00 421.82 C198.12,420.86 201.95,420.23 202.50,420.41 C203.12,420.61 203.38,425.39 203.19,432.86 L 202.88 444.98 ZM 534.50 436.09 C534.50,447.82 534.39,448.52 532.46,448.79 C531.34,448.95 530.13,448.80 529.79,448.45 C529.44,448.11 527.23,447.39 524.87,446.86 C518.10,445.34 518.00,445.13 518.00,431.88 C518.00,425.34 518.34,420.01 518.75,420.02 C519.16,420.03 522.88,420.85 527.00,421.85 L 534.50 423.67 ZM 463.79 430.76 C463.63,436.04 463.05,440.46 462.50,440.62 C461.95,440.77 457.90,438.30 453.50,435.13 L 445.50 429.37 L 445.21 419.52 C445.05,414.11 445.31,409.29 445.77,408.83 C446.24,408.36 450.55,410.95 455.35,414.58 L 464.07 421.18 ZM 269.25 433.57 C265.54,436.28 261.78,439.05 260.88,439.71 C259.99,440.38 258.98,440.65 258.63,440.30 C258.28,439.95 258.00,435.35 258.00,430.08 L 258.00 420.50 L 261.75 417.50 C270.00,410.91 274.06,408.00 275.01,408.00 C275.60,408.00 276.00,412.17 276.00,418.32 L 276.00 428.64 ZM 464.00 394.55 C464.00,399.68 463.66,404.08 463.25,404.33 C462.84,404.58 458.56,401.62 453.75,397.77 L 445.00 390.75 L 445.00 382.04 C445.00,377.25 445.28,373.05 445.63,372.70 C446.56,371.77 449.69,373.67 457.25,379.78 L 464.00 385.23 ZM 495.78 422.83 C495.60,429.68 495.10,433.47 494.34,433.72 C493.70,433.93 492.92,433.67 492.59,433.15 C492.26,432.62 489.07,430.48 485.50,428.39 L 479.00 424.58 L 479.00 413.29 C479.00,407.08 479.19,402.00 479.43,402.00 C479.67,402.00 483.51,404.32 487.96,407.16 L 496.06 412.31 ZM 237.75 426.77 C228.29,433.15 226.03,434.25 225.46,432.76 C225.17,431.99 225.05,426.94 225.21,421.54 C225.50,411.79 225.52,411.72 228.50,410.11 C230.15,409.21 233.61,407.02 236.18,405.24 C238.75,403.46 241.12,402.00 241.43,402.00 C241.74,402.00 242.00,406.93 242.00,412.95 L 242.00 423.90 ZM 270.00 395.70 C260.48,403.16 259.29,403.96 258.64,403.30 C258.29,402.95 258.00,398.49 258.00,393.38 L 258.00 384.09 L 261.60 381.29 C263.58,379.76 267.28,376.81 269.83,374.75 C272.38,372.69 274.82,371.00 275.27,371.00 C275.71,371.00 275.94,375.59 275.78,381.20 L 275.50 391.39 ZM 464.62 561.46 C465.14,562.80 466.63,563.03 473.37,562.79 L 481.50 562.50 L 481.79 553.90 C481.99,547.79 481.70,545.02 480.79,544.31 C478.82,542.78 467.02,539.78 465.42,540.39 C464.33,540.81 464.00,543.16 464.00,550.39 C464.00,555.58 464.28,560.57 464.62,561.46 ZM 239.44 561.70 C239.84,562.75 241.93,563.01 248.23,562.79 L 256.50 562.50 L 256.78 551.25 C256.79,550.86 256.80,550.48 256.81,550.12 C256.97,544.18 257.04,541.29 255.72,540.34 C254.46,539.43 251.93,540.29 246.99,541.96 C246.67,542.07 246.34,542.19 246.00,542.30 L 239.50 544.50 L 239.21 552.41 C239.04,556.76 239.15,560.94 239.44,561.70 ZM 202.70 562.37 C203.09,562.75 207.47,562.94 212.45,562.78 L 221.50 562.50 L 221.80 555.11 L 222.09 547.72 L 217.30 548.41 C214.66,548.80 210.14,549.38 207.25,549.70 L 202.00 550.28 L 202.00 555.97 C202.00,559.10 202.32,561.98 202.70,562.37 ZM 499.70 562.37 C500.09,562.75 504.47,562.94 509.45,562.78 L 518.50 562.50 L 518.50 550.50 L 511.00 549.31 C510.29,549.20 509.62,549.09 508.99,548.99 C503.20,548.06 500.75,547.67 499.73,548.70 C498.97,549.45 498.98,550.97 499.00,553.59 C499.00,553.98 499.00,554.39 499.00,554.83 C499.00,558.59 499.32,561.98 499.70,562.37 ZM 236.17 459.90 C229.29,463.35 226.57,464.24 225.68,463.34 C225.30,462.97 225.00,459.92 225.00,456.56 L 225.00 450.46 L 233.01 446.18 C237.42,443.82 241.35,442.10 241.76,442.35 C242.17,442.60 242.35,446.01 242.17,449.93 L 241.83 457.06 ZM 495.80 457.22 C495.63,460.59 495.05,463.47 494.50,463.63 C493.95,463.79 490.24,462.39 486.25,460.52 L 479.00 457.12 L 479.00 449.56 C479.00,445.40 479.42,442.00 479.93,442.00 C480.45,442.00 483.26,443.43 486.18,445.18 C489.11,446.93 492.53,448.98 493.80,449.73 C495.85,450.96 496.06,451.75 495.80,457.22 ZM 196.50 473.61 C189.43,475.10 187.57,475.23 186.67,474.33 C186.30,473.97 186.00,471.10 186.00,467.97 L 186.00 462.27 L 193.25 460.51 C197.23,459.54 201.08,458.52 201.79,458.25 C202.80,457.86 203.03,459.38 202.80,465.05 L 202.50 472.35 ZM 534.79 468.46 C534.52,474.11 534.34,474.51 532.00,474.66 C530.62,474.75 527.03,474.29 524.00,473.64 L 518.50 472.46 L 518.20 465.73 C517.99,460.93 518.26,459.00 519.13,459.00 C519.80,459.00 523.67,459.77 527.72,460.71 L 535.08 462.43 ZM 430.00 239.97 C430.00,243.96 432.38,243.95 434.38,239.95 C435.70,237.30 435.71,236.82 434.45,236.34 C431.83,235.34 430.00,236.83 430.00,239.97 ZM 287.02 239.53 C289.98,242.67 291.00,242.65 291.00,239.47 C291.00,236.73 288.98,235.41 286.35,236.42 C284.90,236.98 284.98,237.35 287.02,239.53 Z" fill="rgb(25,47,58)"/>
<path d="M 352.55 364.28 L 353.00 353.50 C353.48,342.01 353.41,341.42 351.28,339.70 C350.09,338.74 348.82,338.28 346.54,338.16 L 353.59 337.93 L 353.23 350.71 C353.06,356.92 352.77,362.57 352.55,364.28 ZM 174.71 363.37 C176.20,364.77 180.49,364.00 185.18,361.63 C180.55,364.26 176.78,365.95 175.25,365.98 C175.04,365.98 174.86,365.21 174.71,363.37 ZM 340.15 365.84 C341.33,365.88 342.83,365.86 344.73,365.79 L 350.83 365.56 C348.33,366.12 343.53,366.21 340.15,365.84 ZM 174.41 357.17 C174.10,346.65 174.00,325.29 174.00,285.90 C174.01,317.81 174.18,345.35 174.41,357.17 ZM 210.84 341.54 C211.84,340.58 212.89,339.57 214.00,338.50 C226.71,326.21 234.33,319.62 242.14,314.23 C234.35,319.61 226.83,326.16 212.48,339.98 C211.94,340.50 211.40,341.02 210.84,341.54 ZM 336.44 364.69 C336.16,363.98 336.06,357.79 336.22,350.94 C336.06,357.72 336.17,363.88 336.44,364.71 C336.44,364.71 336.44,364.70 336.44,364.69 Z" fill="rgb(162,170,175)"/>
<path d="M 0.00 360.00 L 0.00 0.00 L 360.00 0.00 L 720.00 0.00 L 720.00 360.00 L 720.00 720.00 L 360.00 720.00 L 0.00 720.00 L 0.00 360.00 ZM 300.57 575.69 C304.46,572.35 304.87,568.03 304.94,530.32 L 305.00 497.15 L 314.75 490.78 C320.11,487.28 327.88,482.28 332.00,479.66 C336.12,477.05 344.00,472.02 349.50,468.48 C355.00,464.95 359.95,462.04 360.50,462.03 C361.05,462.01 367.91,466.16 375.73,471.25 C383.56,476.34 396.05,484.42 403.48,489.21 L 417.00 497.93 L 417.00 535.06 L 417.00 572.20 L 420.11 575.10 L 423.21 578.00 L 489.09 578.00 L 554.97 578.00 L 558.23 575.08 L 561.50 572.16 L 562.00 490.92 L 562.50 409.67 L 565.00 408.94 C576.52,405.60 579.53,404.45 584.36,401.54 C595.87,394.61 605.95,384.09 610.81,373.93 C614.20,366.85 613.45,363.26 608.09,361.04 C605.38,359.92 604.31,360.17 596.31,363.86 C586.81,368.23 576.83,370.32 567.88,369.81 L 562.50 369.50 L 561.99 284.50 C561.49,199.87 561.48,199.47 559.26,193.18 C552.36,173.57 536.16,159.39 516.92,156.12 C506.45,154.34 457.57,154.64 451.23,156.53 C443.62,158.78 438.02,163.46 434.50,170.50 C431.52,176.46 431.50,176.62 431.18,196.00 C431.00,206.73 430.51,215.86 430.08,216.30 C428.83,217.58 417.79,210.51 409.50,203.12 C407.85,201.66 405.02,199.41 403.20,198.13 C399.09,195.22 387.72,180.59 380.67,169.15 C375.50,160.76 368.00,144.04 368.00,140.92 C368.00,138.13 364.12,135.00 360.65,135.00 C355.80,135.00 354.31,136.69 351.48,145.42 C343.45,170.17 324.91,194.62 302.70,209.75 C297.09,213.57 291.94,216.50 291.25,216.27 C290.31,215.94 290.00,211.19 290.00,197.09 C290.00,174.50 289.17,171.18 281.59,163.41 C273.81,155.43 271.55,155.00 236.98,155.00 C205.33,155.00 198.49,155.93 187.68,161.73 C180.42,165.62 169.77,176.53 166.05,183.89 C159.27,197.34 159.58,192.82 159.01,285.50 L 158.50 369.50 L 152.69 369.80 C144.23,370.24 132.61,367.73 123.83,363.56 C115.47,359.59 112.14,359.54 109.48,363.34 C107.01,366.86 107.78,370.22 112.97,378.66 C121.46,392.46 134.32,402.32 150.56,407.49 L 159.00 410.18 L 159.00 489.12 C159.00,574.04 158.92,572.73 164.12,576.37 C166.21,577.84 173.02,578.00 232.17,578.00 L 297.89 578.00 L 300.57 575.69 ZM 174.71 562.38 C174.32,561.99 174.00,552.97 174.00,542.33 L 174.00 523.00 L 182.75 523.00 C212.63,523.01 246.74,514.61 276.53,499.93 C283.15,496.67 288.89,494.00 289.28,494.00 C290.58,494.00 290.09,508.68 288.75,509.79 C288.06,510.36 283.23,512.68 278.00,514.94 C272.77,517.21 267.60,519.47 266.50,519.96 C261.62,522.16 242.59,528.14 233.00,530.50 C223.14,532.91 219.29,533.53 198.89,535.97 C194.43,536.50 190.17,537.45 189.42,538.07 C188.45,538.87 187.98,542.53 187.78,550.85 L 187.50 562.50 L 181.46 562.79 C178.14,562.95 175.10,562.77 174.71,562.38 ZM 202.70 562.37 C202.32,561.98 202.00,559.10 202.00,555.97 L 202.00 550.28 L 207.25 549.70 C210.14,549.38 214.66,548.80 217.30,548.41 L 222.09 547.72 L 221.80 555.11 L 221.50 562.50 L 212.45 562.78 C207.47,562.94 203.09,562.75 202.70,562.37 ZM 239.44 561.70 C239.15,560.94 239.04,556.76 239.21,552.41 L 239.50 544.50 L 246.00 542.30 C257.45,538.42 257.11,538.14 256.78,551.25 L 256.50 562.50 L 248.23 562.79 C241.93,563.01 239.84,562.75 239.44,561.70 ZM 274.67 562.33 C274.30,561.97 274.00,555.22 274.00,547.34 L 274.00 533.02 L 280.70 529.98 C284.39,528.31 287.99,527.17 288.70,527.44 C290.49,528.12 290.58,560.02 288.80,561.80 C287.54,563.06 275.83,563.50 274.67,562.33 ZM 431.71 562.37 C431.32,561.98 431.00,553.87 431.00,544.33 C431.00,530.10 431.25,527.00 432.41,527.00 C433.18,527.00 436.79,528.34 440.43,529.97 L 447.05 532.94 L 446.78 547.72 L 446.50 562.50 L 439.46 562.79 C435.58,562.95 432.09,562.76 431.71,562.37 ZM 464.62 561.46 C464.28,560.57 464.00,555.58 464.00,550.39 C464.00,543.16 464.33,540.81 465.42,540.39 C467.02,539.78 478.82,542.78 480.79,544.31 C481.70,545.02 481.99,547.79 481.79,553.90 L 481.50 562.50 L 473.37 562.79 C466.63,563.03 465.14,562.80 464.62,561.46 ZM 499.70 562.37 C499.32,561.98 499.00,558.59 499.00,554.83 C499.00,546.95 498.25,547.29 511.00,549.31 L 518.50 550.50 L 518.50 556.50 L 518.50 562.50 L 509.45 562.78 C504.47,562.94 500.09,562.75 499.70,562.37 ZM 533.62 561.46 C533.28,560.57 533.00,555.20 533.00,549.54 C533.00,541.94 532.63,538.94 531.60,538.08 C530.83,537.45 523.30,536.07 514.85,535.03 C497.70,532.92 482.71,529.57 467.02,524.32 C456.76,520.89 434.75,511.65 432.25,509.72 C430.75,508.56 430.49,494.00 431.97,494.00 C432.50,494.00 437.79,496.42 443.72,499.37 C475.29,515.09 496.58,520.53 538.27,523.55 L 547.04 524.18 L 546.77 543.34 L 546.50 562.50 L 540.37 562.79 C535.46,563.03 534.12,562.77 533.62,561.46 ZM 174.67 508.33 C174.30,507.97 174.00,505.72 174.00,503.33 L 174.00 499.00 L 178.25 498.98 C191.08,498.92 217.90,494.17 231.50,489.54 C247.91,483.96 267.14,474.25 282.85,463.62 C285.79,461.63 288.60,460.25 289.10,460.56 C289.59,460.87 290.00,464.25 290.00,468.08 L 290.00 475.04 L 282.91 479.63 C266.46,490.27 243.29,499.39 221.21,503.91 C202.99,507.65 176.50,510.16 174.67,508.33 ZM 524.00 507.86 C507.20,506.26 487.88,501.87 472.36,496.12 C460.51,491.74 444.02,483.76 437.13,479.09 L 431.00 474.93 L 431.00 468.02 C431.00,464.22 431.39,460.88 431.86,460.59 C432.33,460.30 435.59,461.98 439.11,464.32 C460.09,478.31 481.70,488.13 503.50,493.56 C513.85,496.14 533.91,498.95 542.30,498.98 L 547.11 499.00 L 546.80 503.75 L 546.50 508.50 L 540.00 508.63 C536.42,508.71 529.22,508.36 524.00,507.86 ZM 174.49 483.84 C174.21,483.10 174.09,466.29 174.24,446.50 L 174.50 410.50 L 182.47 409.71 C197.58,408.22 216.52,399.99 231.91,388.24 C236.04,385.08 244.39,377.75 250.46,371.96 C256.53,366.16 263.52,360.04 266.00,358.37 C273.56,353.28 285.62,347.00 287.87,347.00 L 290.00 347.00 L 290.00 393.40 L 290.00 439.79 L 286.50 442.87 C273.88,453.95 247.73,468.21 226.50,475.58 C217.69,478.64 199.52,482.68 191.00,483.47 C187.43,483.80 182.36,484.32 179.75,484.63 C176.29,485.04 174.87,484.82 174.49,483.84 ZM 196.50 473.61 L 202.50 472.35 L 202.80 465.05 C203.03,459.38 202.80,457.86 201.79,458.25 C201.08,458.52 197.23,459.54 193.25,460.51 L 186.00 462.27 L 186.00 467.97 C186.00,471.10 186.30,473.97 186.67,474.33 C187.57,475.23 189.43,475.10 196.50,473.61 ZM 236.17 459.90 L 241.83 457.06 L 242.17 449.93 C242.35,446.01 242.17,442.60 241.76,442.35 C241.35,442.10 237.42,443.82 233.01,446.18 L 225.00 450.46 L 225.00 456.56 C225.00,459.92 225.30,462.97 225.68,463.34 C226.57,464.24 229.29,463.35 236.17,459.90 ZM 197.69 446.45 L 202.88 444.98 L 203.19 432.86 C203.38,425.39 203.12,420.61 202.50,420.41 C201.95,420.23 198.12,420.86 194.00,421.82 L 186.50 423.57 L 186.22 434.97 C186.06,441.25 186.18,447.02 186.47,447.79 C187.05,449.30 188.02,449.18 197.69,446.45 ZM 269.25 433.57 L 276.00 428.64 L 276.00 418.32 C276.00,412.17 275.60,408.00 275.01,408.00 C274.06,408.00 270.00,410.91 261.75,417.50 L 258.00 420.50 L 258.00 430.08 C258.00,435.35 258.28,439.95 258.63,440.30 C258.98,440.65 259.99,440.38 260.88,439.71 C261.78,439.05 265.54,436.28 269.25,433.57 ZM 237.75 426.77 L 242.00 423.90 L 242.00 412.95 C242.00,406.93 241.74,402.00 241.43,402.00 C241.12,402.00 238.75,403.46 236.18,405.24 C233.61,407.02 230.15,409.21 228.50,410.11 C225.52,411.72 225.50,411.79 225.21,421.54 C225.05,426.94 225.17,431.99 225.46,432.76 C226.03,434.25 228.29,433.15 237.75,426.77 ZM 270.00 395.70 L 275.50 391.39 L 275.78 381.20 C275.94,375.59 275.71,371.00 275.27,371.00 C274.82,371.00 272.38,372.69 269.83,374.75 C267.28,376.81 263.58,379.76 261.60,381.29 L 258.00 384.09 L 258.00 393.38 C258.00,398.49 258.29,402.95 258.64,403.30 C259.29,403.96 260.48,403.16 270.00,395.70 ZM 529.00 483.48 C516.63,482.06 501.74,478.51 490.50,474.31 C474.19,468.22 447.34,453.11 435.25,443.23 L 431.00 439.76 L 431.00 393.38 C431.00,340.19 429.90,344.69 441.39,350.63 C451.53,355.88 459.10,361.29 467.83,369.51 C488.00,388.52 502.15,398.82 514.51,403.47 C522.12,406.33 536.53,409.81 542.50,410.22 L 546.50 410.50 L 546.50 447.50 L 546.50 484.50 L 543.50 484.65 C541.85,484.73 535.33,484.20 529.00,483.48 ZM 534.79 468.46 L 535.08 462.43 L 527.72 460.71 C523.67,459.77 519.80,459.00 519.13,459.00 C518.26,459.00 517.99,460.93 518.20,465.73 L 518.50 472.46 L 524.00 473.64 C527.03,474.29 530.62,474.75 532.00,474.66 C534.34,474.51 534.52,474.11 534.79,468.46 ZM 495.80 457.22 C496.06,451.75 495.85,450.96 493.80,449.73 C492.53,448.98 489.11,446.93 486.18,445.18 C483.26,443.43 480.45,442.00 479.93,442.00 C479.42,442.00 479.00,445.40 479.00,449.56 L 479.00 457.12 L 486.25 460.52 C490.24,462.39 493.95,463.79 494.50,463.63 C495.05,463.47 495.63,460.59 495.80,457.22 ZM 534.50 436.09 L 534.50 423.67 L 527.00 421.85 C522.88,420.85 519.16,420.03 518.75,420.02 C518.34,420.01 518.00,425.34 518.00,431.88 C518.00,445.13 518.10,445.34 524.87,446.86 C527.23,447.39 529.44,448.11 529.79,448.45 C530.13,448.80 531.34,448.95 532.46,448.79 C534.39,448.52 534.50,447.82 534.50,436.09 ZM 463.79 430.76 L 464.07 421.18 L 455.35 414.58 C450.55,410.95 446.24,408.36 445.77,408.83 C445.31,409.29 445.05,414.11 445.21,419.52 L 445.50 429.37 L 453.50 435.13 C457.90,438.30 461.95,440.77 462.50,440.62 C463.05,440.46 463.63,436.04 463.79,430.76 ZM 495.78 422.83 L 496.06 412.31 L 487.96 407.16 C483.51,404.32 479.67,402.00 479.43,402.00 C479.19,402.00 479.00,407.08 479.00,413.29 L 479.00 424.58 L 485.50 428.39 C489.07,430.48 492.26,432.62 492.59,433.15 C492.92,433.67 493.70,433.93 494.34,433.72 C495.10,433.47 495.60,429.68 495.78,422.83 ZM 464.00 394.55 L 464.00 385.23 L 457.25 379.78 C449.69,373.67 446.56,371.77 445.63,372.70 C445.28,373.05 445.00,377.25 445.00,382.04 L 445.00 390.75 L 453.75 397.77 C458.56,401.62 462.84,404.58 463.25,404.33 C463.66,404.08 464.00,399.68 464.00,394.55 ZM 304.00 372.50 L 304.00 265.00 L 360.50 265.00 L 417.00 265.00 L 417.00 371.83 C417.00,430.59 416.73,478.94 416.39,479.28 C415.74,479.92 409.95,476.45 403.75,471.70 L 400.00 468.83 L 400.00 376.57 C400.00,288.46 399.92,284.24 398.17,282.65 C396.54,281.18 392.43,281.00 360.19,281.00 L 324.05 281.00 L 322.58 283.25 C321.31,285.19 321.12,298.14 321.18,377.42 L 321.25 469.35 L 313.10 474.67 C308.61,477.60 304.73,480.00 304.47,480.00 C304.21,480.00 304.00,431.62 304.00,372.50 ZM 377.85 455.16 C367.57,448.48 368.00,449.36 368.00,435.31 L 368.00 422.92 L 376.75 423.21 L 385.50 423.50 L 385.50 440.92 C385.50,451.69 385.12,458.43 384.50,458.58 C383.95,458.72 380.96,457.18 377.85,455.16 ZM 336.00 441.00 L 336.00 424.00 L 343.94 424.00 C348.31,424.00 352.13,424.40 352.43,424.88 C352.73,425.37 353.27,430.31 353.64,435.85 C354.15,443.77 354.00,446.30 352.90,447.64 C351.18,449.74 338.55,458.00 337.07,458.00 C336.35,458.00 336.00,452.46 336.00,441.00 ZM 336.44 407.70 C336.16,406.98 336.06,400.57 336.22,393.45 L 336.50 380.50 L 343.50 380.51 C354.43,380.52 354.00,379.96 354.00,394.27 C354.00,402.53 353.60,407.00 352.80,407.80 C351.10,409.50 337.10,409.42 336.44,407.70 ZM 368.22 394.79 L 368.50 380.50 L 377.00 380.50 L 385.50 380.50 L 385.50 394.50 L 385.50 408.50 L 376.72 408.79 L 367.94 409.08 L 368.22 394.79 ZM 158.08 394.41 C151.97,392.77 141.39,387.70 138.78,385.17 C137.17,383.61 138.10,383.50 153.28,383.50 C164.06,383.50 170.84,383.06 173.50,382.18 C187.63,377.49 199.30,371.25 208.86,363.25 C211.96,360.65 220.40,352.87 227.62,345.96 C241.75,332.42 254.27,323.20 266.07,317.62 C276.02,312.92 287.79,308.75 289.01,309.51 C290.51,310.43 290.27,328.53 288.75,329.77 C288.06,330.32 283.67,332.48 279.00,334.55 C266.27,340.21 252.46,349.77 240.03,361.52 C217.70,382.62 206.54,389.61 188.38,393.86 C177.78,396.34 166.06,396.56 158.08,394.41 ZM 536.35 394.96 C529.47,393.60 518.52,389.46 511.70,385.65 C502.90,380.73 497.15,376.27 483.79,364.00 C465.55,347.26 458.75,342.30 446.00,336.43 C441.88,334.54 436.92,332.20 435.00,331.24 L 431.50 329.50 L 431.21 320.09 C431.05,314.91 431.33,310.27 431.84,309.76 C432.89,308.71 437.55,310.15 449.50,315.22 C465.39,321.97 477.13,330.36 495.50,348.13 C514.76,366.76 528.93,376.32 544.09,380.90 C554.27,383.98 567.28,385.26 575.90,384.02 C583.89,382.88 585.63,383.31 582.50,385.66 C571.67,393.78 551.22,397.90 536.35,394.96 ZM 336.45 364.74 C336.17,364.00 336.06,357.79 336.22,350.94 L 336.50 338.50 L 342.78 338.20 C347.65,337.97 349.56,338.31 351.28,339.70 C353.41,341.42 353.48,342.01 353.00,353.50 L 352.50 365.50 L 344.73 365.79 C338.93,366.01 336.84,365.74 336.45,364.74 ZM 368.00 352.04 L 368.00 338.00 L 377.03 338.00 L 386.06 338.00 L 385.78 351.75 L 385.50 365.50 L 376.75 365.79 L 368.00 366.08 L 368.00 352.04 ZM 539.19 363.01 C528.91,358.15 521.06,352.24 508.50,339.92 C489.11,320.89 477.75,312.37 460.99,304.28 C450.89,299.41 446.06,297.49 440.00,295.97 C430.80,293.65 431.00,294.10 431.00,275.99 L 431.00 260.03 L 435.25 257.37 C440.49,254.09 459.66,235.49 461.59,231.80 C463.37,228.40 463.36,226.88 461.58,224.44 C460.50,222.96 458.56,222.38 453.33,222.00 L 446.50 221.50 L 446.32 200.56 C446.13,177.65 446.46,175.94 451.89,172.08 C454.69,170.09 456.04,170.00 484.32,170.00 C512.25,170.00 514.13,170.12 519.66,172.19 C527.81,175.26 532.07,178.09 536.75,183.57 C542.06,189.78 544.87,195.57 546.04,202.70 C547.21,209.88 547.33,364.68 546.16,365.40 C545.70,365.68 542.57,364.61 539.19,363.01 ZM 174.67 363.33 C174.30,362.97 174.00,327.37 174.00,284.24 C174.00,214.79 174.19,205.16 175.63,200.15 C178.99,188.46 184.39,181.24 193.85,175.76 C203.38,170.26 205.03,170.03 235.78,170.02 C267.24,170.00 269.42,170.36 272.97,176.19 C274.82,179.22 274.99,181.20 275.00,199.63 C275.00,214.80 274.68,220.02 273.72,220.82 C273.01,221.41 269.76,222.03 266.50,222.19 C261.30,222.46 260.39,222.82 259.11,225.11 C257.87,227.31 257.85,228.22 258.95,230.89 C260.69,235.07 277.80,252.17 284.62,256.53 L 290.00 259.98 L 290.00 276.37 C290.00,288.30 289.66,293.02 288.75,293.71 C288.06,294.24 285.00,295.21 281.95,295.86 C271.89,298.02 254.53,305.90 243.50,313.30 C235.20,318.88 227.44,325.50 214.00,338.50 C201.00,351.07 196.10,355.11 187.48,360.34 C181.92,363.72 176.35,365.02 174.67,363.33 ZM 368.00 309.46 L 368.00 294.92 L 376.75 295.21 L 385.50 295.50 L 385.78 308.36 C385.97,316.99 385.68,321.68 384.91,322.61 C384.10,323.58 381.38,324.00 375.88,324.00 L 368.00 324.00 L 368.00 309.46 ZM 336.45 321.74 C336.17,320.99 336.06,314.79 336.22,307.94 L 336.50 295.50 L 345.17 295.21 L 353.85 294.92 L 353.67 308.71 L 353.50 322.50 L 345.23 322.79 C339.02,323.01 336.84,322.75 336.45,321.74 ZM 306.68 250.34 C306.30,249.97 306.00,247.04 306.00,243.83 L 306.00 238.00 L 321.34 238.00 C329.77,238.00 354.32,238.30 375.88,238.66 L 415.09 239.33 L 414.80 244.91 L 414.50 250.50 L 360.93 250.76 C331.46,250.90 307.05,250.71 306.68,250.34 ZM 430.00 239.97 C430.00,236.83 431.83,235.34 434.45,236.34 C435.71,236.82 435.70,237.30 434.38,239.95 C432.38,243.95 430.00,243.96 430.00,239.97 ZM 287.02 239.53 C284.98,237.35 284.90,236.98 286.35,236.42 C288.98,235.41 291.00,236.73 291.00,239.47 C291.00,242.65 289.98,242.67 287.02,239.53 ZM 311.54 223.06 C311.22,222.55 313.07,220.67 315.65,218.90 C329.95,209.06 346.89,189.17 357.27,170.03 C358.80,167.21 360.44,165.15 360.92,165.45 C361.39,165.74 363.00,168.35 364.50,171.24 C372.49,186.69 389.89,207.25 404.70,218.74 C407.55,220.96 409.62,223.05 409.28,223.39 C408.25,224.41 312.18,224.09 311.54,223.06 Z" fill="rgb(254,254,254)"/>
</g>
</svg>